<svg xmlns="http://www.w3.org/2000/svg" width="1024" height="1024" viewBox="0 0 1024 1024" version="1.1">
	<path d="M 503.618 175.112 C 493.074 177.588, 480.769 187.577, 476.144 197.418 L 473.990 202 434.745 202.024 C 390.240 202.051, 375.402 202.903, 364.858 206.040 C 347.907 211.083, 330.698 222.679, 321.194 235.463 C 315.816 242.697, 308.997 256.684, 305.817 267 L 303.506 274.500 303.207 511.500 C 302.991 682.482, 303.220 750.695, 304.027 756.379 C 305.276 765.168, 309.881 779.147, 313.785 786 C 315.195 788.475, 318.766 793.501, 321.721 797.168 C 339.523 819.265, 364.729 830.051, 403.736 832.263 C 404.415 832.302, 405.220 833.117, 405.524 834.074 C 405.827 835.032, 406.763 836.079, 407.601 836.401 C 408.440 836.722, 408.884 837.379, 408.587 837.859 C 408.290 838.340, 409.049 839.580, 410.274 840.616 L 412.500 842.500 410.500 840.080 C 408.670 837.867, 408.655 837.717, 410.322 838.327 C 411.325 838.693, 413.125 838.479, 414.322 837.851 C 416.434 836.744, 416.447 836.769, 414.742 838.692 C 413.061 840.588, 413.068 840.752, 414.901 842.411 C 416.730 844.066, 416.849 844.050, 417.477 842.073 C 418.146 839.965, 420 839.176, 420 841 C 420 841.550, 419.550 842, 419 842 C 418.450 842, 418 842.480, 418 843.067 C 418 843.695, 418.927 843.874, 420.250 843.502 C 421.490 843.153, 422.012 843.235, 421.412 843.684 C 420.814 844.133, 420.050 845.625, 419.714 847 L 419.104 849.500 421.197 847 C 422.486 845.461, 423.451 844.959, 423.710 845.694 C 423.940 846.350, 424.742 846.652, 425.492 846.365 C 426.465 845.991, 426.697 846.442, 426.305 847.942 C 425.868 849.614, 425.470 849.805, 424.354 848.879 C 422.367 847.230, 421.903 848.147, 423.571 850.429 C 424.346 851.488, 425.125 852.162, 425.304 851.927 C 425.482 851.692, 426.612 850.202, 427.814 848.615 C 430.542 845.015, 430.622 845.831, 428 850.500 C 425.612 854.752, 425.480 855.677, 427.500 854 C 428.325 853.315, 429 852.135, 429 851.378 C 429 850.620, 429.450 850, 430 850 C 431.267 850, 431.302 852.297, 430.054 853.550 C 429.459 854.148, 429.834 855.427, 431.067 857 C 432.145 858.375, 432.763 858.753, 432.441 857.840 C 431.555 855.328, 435.659 854.381, 438.051 856.546 C 439.869 858.191, 440.052 858.160, 441.946 855.886 C 444.115 853.281, 444.632 853.950, 442.921 857.148 C 442.058 858.759, 442.207 859.431, 443.660 860.493 C 444.660 861.224, 445.820 861.611, 446.239 861.352 C 447.411 860.628, 447.140 858, 445.893 858 C 445.252 858, 445.066 858.736, 445.452 859.750 C 445.932 861.011, 445.814 861.198, 445.026 860.417 C 444.426 859.822, 444.227 858.573, 444.584 857.642 C 445.089 856.327, 445.542 856.205, 446.617 857.097 C 447.378 857.728, 448.014 858.977, 448.030 859.872 C 448.057 861.295, 448.190 861.279, 449.085 859.742 C 449.648 858.775, 449.789 857.468, 449.400 856.838 C 448.954 856.116, 449.134 855.965, 449.886 856.430 C 450.544 856.836, 450.820 857.993, 450.500 859 C 450.180 860.007, 450.387 861.121, 450.959 861.475 C 451.532 861.829, 452 861.641, 452 861.059 C 452 860.477, 452.727 860, 453.617 860 C 454.814 860, 455.106 860.667, 454.741 862.576 C 454.413 864.289, 454.582 864.818, 455.246 864.154 C 455.795 863.605, 456.864 863.394, 457.622 863.685 C 458.380 863.976, 459 863.716, 459 863.107 C 459 862.498, 458.494 862.112, 457.875 862.250 C 457.256 862.387, 456.547 861.825, 456.299 861 C 455.935 859.790, 456.031 859.762, 456.799 860.857 C 457.361 861.658, 457.996 861.816, 458.350 861.242 C 459.400 859.544, 463.449 860.376, 463.833 862.368 C 464.059 863.544, 463.780 863.982, 463.080 863.549 C 462.468 863.171, 462.226 862.443, 462.543 861.931 C 462.859 861.419, 462.593 861, 461.952 861 C 461.311 861, 461.024 861.620, 461.315 862.378 C 461.606 863.136, 461.374 864.226, 460.800 864.800 C 460.074 865.526, 460.929 865.580, 463.600 864.978 C 468.111 863.960, 468.777 864.311, 466.923 866.726 C 466.174 867.702, 466.801 867.393, 468.317 866.041 L 471.074 863.582 474.897 867.764 C 477 870.065, 479 871.667, 479.342 871.325 C 479.684 870.983, 479 869.867, 477.821 868.845 C 476.643 867.823, 475.947 866.720, 476.274 866.393 C 476.600 866.066, 477.882 866.744, 479.122 867.899 C 481.837 870.428, 482.648 870.495, 484.777 868.366 C 485.675 867.467, 486.559 867.177, 486.740 867.721 C 486.921 868.264, 488.195 868.494, 489.570 868.231 C 491.141 867.931, 492.863 868.449, 494.205 869.627 C 496.010 871.211, 496.246 871.245, 495.739 869.849 C 494.970 867.735, 498.779 866.583, 500.885 868.292 C 502.130 869.301, 502.258 869.189, 501.664 867.609 C 501.073 866.033, 501.199 865.920, 502.418 866.932 C 503.223 867.600, 503.652 868.743, 503.372 869.472 C 503.093 870.201, 503.414 871.138, 504.086 871.553 C 504.825 872.010, 505.052 871.893, 504.660 871.259 C 503.857 869.960, 506.467 868.858, 508.500 869.638 C 509.325 869.955, 510 869.764, 510 869.214 C 510 867.716, 512.834 866.922, 513.622 868.198 C 514.031 868.859, 513.855 869.028, 513.187 868.616 C 512.570 868.234, 511.507 868.817, 510.824 869.910 C 509.901 871.388, 509.251 871.623, 508.291 870.827 C 507.454 870.132, 507 870.112, 507 870.771 C 507 872.574, 510.321 873.177, 511.237 871.541 C 511.711 870.693, 513.025 870, 514.157 870 C 515.575 870, 516.035 869.534, 515.638 868.500 C 514.885 866.537, 515.240 866.606, 517.939 868.947 C 519.188 870.030, 519.868 871.405, 519.471 872.047 C 518.936 872.912, 519.283 872.919, 520.859 872.076 C 522.014 871.457, 524.206 871.190, 525.729 871.482 C 527.253 871.773, 527.938 871.747, 527.250 871.423 C 525.542 870.617, 525.680 869.337, 527.552 868.618 C 528.406 868.291, 528.860 868.417, 528.563 868.898 C 527.600 870.456, 530.785 872.203, 533.194 871.438 C 535.325 870.762, 535.381 870.843, 533.992 872.606 C 532.615 874.354, 532.635 874.394, 534.250 873.128 C 535.635 872.041, 536 872.024, 536 873.044 C 536 873.753, 536.306 874.028, 536.679 873.654 C 537.052 873.281, 536.364 871.631, 535.149 869.988 C 533.934 868.344, 533.418 867, 534.001 867 C 534.585 867, 535.309 867.641, 535.609 868.424 C 535.934 869.271, 537.222 869.733, 538.791 869.566 C 540.241 869.411, 542.039 869.896, 542.785 870.642 C 543.532 871.389, 544.593 872, 545.143 872 C 545.693 872, 545.436 871.293, 544.571 870.429 C 542.302 868.159, 542.633 866.358, 544.937 868.443 C 546.002 869.407, 547.397 869.873, 548.037 869.477 C 548.907 868.939, 548.903 869.313, 548.019 870.965 C 547.369 872.178, 547.099 873.433, 547.419 873.752 C 547.739 874.072, 548 873.881, 548 873.327 C 548 872.774, 549.237 871.764, 550.750 871.084 C 552.980 870.081, 553.263 870.089, 552.250 871.124 C 551.563 871.826, 551.007 872.872, 551.015 873.450 C 551.024 874.027, 551.460 873.825, 551.985 873 C 552.741 871.812, 553.326 871.740, 554.803 872.654 C 556.271 873.563, 556.667 873.522, 556.667 872.460 C 556.667 871.718, 556.239 871.199, 555.716 871.306 C 555.193 871.412, 554.628 870.674, 554.459 869.664 C 554.170 867.935, 554.261 867.926, 556.013 869.512 C 557.036 870.438, 558.313 870.925, 558.849 870.593 C 559.404 870.251, 559.710 871.038, 559.559 872.417 L 559.292 874.844 562.107 872.763 C 563.655 871.618, 564.645 870.234, 564.306 869.686 C 563.960 869.126, 564.196 869.003, 564.845 869.405 C 566.366 870.344, 566.332 868.732, 564.800 867.200 C 562.216 864.616, 565.294 866.173, 568.272 868.957 C 570.455 870.997, 571.661 871.548, 572.163 870.736 C 572.564 870.088, 573.217 869.884, 573.616 870.283 C 574.015 870.682, 573.252 872.230, 571.921 873.724 C 570.589 875.217, 570.288 875.835, 571.250 875.097 C 572.592 874.068, 573.327 874.026, 574.403 874.919 C 575.480 875.813, 575.944 875.783, 576.403 874.792 C 576.877 873.766, 577.120 873.758, 577.585 874.756 C 577.907 875.447, 578.586 875.756, 579.093 875.442 C 579.600 875.129, 579.333 874.190, 578.498 873.356 C 577.664 872.521, 577.280 871.356, 577.645 870.765 C 578.039 870.128, 577.839 869.982, 577.155 870.405 C 576.442 870.845, 576.011 870.426, 576.030 869.309 C 576.051 868.009, 577.153 868.765, 579.948 871.999 C 582.086 874.473, 584.172 876.161, 584.584 875.749 C 584.996 875.337, 584.822 875, 584.198 875 C 583.547 875, 583.337 874.286, 583.705 873.326 C 584.215 871.997, 583.952 871.803, 582.424 872.386 C 580.886 872.971, 580.749 872.867, 581.743 871.866 C 582.738 870.864, 583.588 871.189, 585.993 873.494 C 587.647 875.078, 589 876.002, 589 875.547 C 589 875.093, 588.212 874.123, 587.250 873.392 C 585.636 872.167, 585.631 872.061, 587.191 872.032 C 588.121 872.014, 589.190 872.498, 589.566 873.107 C 589.981 873.779, 590.495 873.839, 590.875 873.261 C 592.295 871.097, 596.647 871.022, 598.902 873.124 C 600.557 874.665, 601.052 874.806, 600.817 873.667 C 600.441 871.843, 600.897 871.639, 603.293 872.559 C 605.722 873.491, 606.922 872.095, 604.742 870.875 C 603.784 870.339, 603.007 869.360, 603.015 868.700 C 603.025 867.966, 603.407 868.082, 604 869 C 604.533 869.825, 604.983 870.050, 605 869.500 C 605.017 868.950, 605.508 869.175, 606.091 870 C 606.918 871.168, 607.268 871.214, 607.673 870.208 C 608.087 869.183, 608.500 869.170, 609.673 870.144 C 610.855 871.124, 611.352 871.082, 612.142 869.936 C 612.889 868.851, 612.987 869.018, 612.540 870.618 C 612.109 872.162, 612.620 873.176, 614.422 874.357 C 616.029 875.410, 617.120 875.614, 617.537 874.940 C 617.970 874.240, 618.636 874.283, 619.589 875.074 C 620.677 875.977, 621.383 875.931, 622.673 874.872 C 624.171 873.644, 624.282 873.752, 623.729 875.894 C 623.251 877.749, 623.381 878.019, 624.306 877.094 C 624.963 876.437, 625.500 875.398, 625.500 874.783 C 625.500 874.169, 626.126 873.458, 626.891 873.203 C 627.948 872.851, 628.138 873.431, 627.681 875.620 C 627.350 877.204, 627.324 877.938, 627.623 877.250 C 628.378 875.515, 630.052 875.689, 631.487 877.651 C 632.444 878.961, 632.862 879.032, 633.502 877.997 C 634.035 877.134, 633.918 876.933, 633.155 877.405 C 632.425 877.856, 632 877.361, 632 876.059 C 632 873.308, 634.433 873.433, 635.730 876.250 C 636.743 878.450, 636.763 878.441, 636.633 875.846 C 636.560 874.386, 636.210 873.371, 635.855 873.590 C 635.500 873.809, 634.948 873.306, 634.627 872.471 C 634.157 871.246, 634.415 871.152, 635.969 871.983 C 637.407 872.753, 638.096 872.659, 638.697 871.610 C 639.374 870.427, 639.731 870.456, 640.967 871.794 C 642.265 873.197, 642.246 873.308, 640.800 872.753 C 639.832 872.382, 638.941 872.712, 638.614 873.563 C 637.867 875.510, 638.970 878.137, 640.212 877.369 C 640.830 876.987, 640.706 876.436, 639.886 875.929 C 639.155 875.478, 638.868 874.798, 639.248 874.419 C 639.627 874.040, 641.089 874.484, 642.497 875.406 C 645.445 877.337, 647.398 876.628, 646.681 873.887 C 646.409 872.849, 646.595 872, 647.094 872 C 647.592 872, 648 872.633, 648 873.406 C 648 874.357, 648.703 874.629, 650.169 874.246 C 651.831 873.811, 652.200 874.037, 651.748 875.215 C 650.983 877.209, 654.661 878.865, 658 878.030 C 659.406 877.678, 660.505 876.677, 660.512 875.741 C 660.518 874.826, 661.045 873.555, 661.683 872.917 C 662.322 872.278, 662.623 871.182, 662.354 870.479 C 662.084 869.777, 662.339 868.908, 662.920 868.549 C 663.563 868.152, 663.744 868.504, 663.382 869.448 C 663.001 870.439, 663.346 871, 664.334 871 C 665.185 871, 666.179 871.480, 666.541 872.067 C 666.931 872.697, 666.498 873.004, 665.484 872.817 C 664.419 872.620, 663.425 873.407, 662.865 874.888 C 662.086 876.950, 662.168 877.105, 663.470 876.025 C 664.299 875.337, 664.735 874.380, 664.437 873.898 C 664.140 873.417, 664.684 873.325, 665.648 873.695 C 666.724 874.108, 666.937 874.521, 666.199 874.767 C 665.540 874.987, 665 875.634, 665 876.206 C 665 876.837, 665.585 876.759, 666.489 876.009 C 667.308 875.329, 667.751 874.405, 667.473 873.956 C 667.195 873.506, 667.444 872.843, 668.027 872.483 C 669.464 871.595, 672.213 874.003, 671.596 875.609 C 671.283 876.425, 671.643 876.690, 672.576 876.332 C 673.724 875.892, 673.792 875.454, 672.883 874.359 C 672.241 873.585, 672.043 872.625, 672.444 872.226 C 672.844 871.827, 674.093 872.625, 675.219 874 C 677.209 876.430, 677.247 876.437, 676.558 874.225 C 676.168 872.974, 676.221 872.014, 676.675 872.093 C 678.485 872.408, 680 871.953, 680 871.094 C 680 870.595, 679.030 870.441, 677.844 870.751 C 676.330 871.147, 675.908 870.958, 676.427 870.118 C 676.901 869.351, 678.706 869.101, 681.440 869.423 C 685.266 869.873, 685.833 869.663, 686.856 867.416 C 688.314 864.216, 688.295 863.712, 686.750 864.601 C 686.063 864.997, 685.838 864.948, 686.252 864.491 C 686.666 864.035, 686.219 862.726, 685.259 861.581 C 683.626 859.633, 683.673 859.638, 686.007 861.669 C 687.679 863.124, 689.714 863.800, 692.188 863.723 C 694.216 863.659, 695.652 863.246, 695.379 862.804 C 694.595 861.535, 697.468 861.868, 698.800 863.200 C 699.733 864.133, 700.278 864.117, 701.250 863.129 C 701.938 862.429, 702.050 861.949, 701.500 862.062 C 700.950 862.175, 699.001 861.919, 697.169 861.493 C 694.937 860.973, 694.262 860.456, 695.122 859.925 C 695.827 859.489, 696.789 859.370, 697.259 859.660 C 697.730 859.951, 699.305 860.319, 700.760 860.479 C 703.241 860.751, 703.288 860.684, 701.511 859.385 C 700.466 858.620, 700.178 858, 700.868 858 C 701.556 858, 701.798 857.483, 701.406 856.849 C 700.914 856.052, 700.244 856.284, 699.233 857.599 C 698.265 858.857, 697.618 859.096, 697.321 858.306 C 697.073 857.650, 696.112 857.346, 695.185 857.632 C 693.731 858.080, 693.743 857.995, 695.271 857.014 C 696.245 856.389, 696.738 855.385, 696.367 854.784 C 695.958 854.123, 696.154 853.977, 696.862 854.415 C 697.506 854.813, 697.774 855.557, 697.457 856.069 C 697.141 856.581, 697.246 857.005, 697.691 857.012 C 698.136 857.018, 700.634 854.656, 703.243 851.762 C 707.214 847.356, 708.166 846.744, 709.087 848 C 710.026 849.279, 710.108 849.247, 709.638 847.782 C 709.335 846.837, 709.630 845.752, 710.294 845.372 C 710.957 844.991, 711.178 845.036, 710.785 845.471 C 710.392 845.907, 710.553 847.164, 711.142 848.266 C 712.154 850.156, 712.300 850.090, 713.756 847.084 C 714.654 845.229, 715.841 844.109, 716.598 844.399 C 717.417 844.714, 717.693 844.362, 717.342 843.449 C 716.687 841.742, 714.328 841.516, 713.797 843.110 C 713.567 843.800, 712.915 843.603, 712.072 842.587 C 710.903 841.178, 710.942 841.041, 712.359 841.584 C 713.271 841.934, 714 841.723, 714 841.107 C 714 839.538, 716.201 840.175, 718.174 842.316 C 720.402 844.731, 720.313 844.716, 722.191 843 C 723.196 842.082, 723.477 841.131, 722.916 840.550 C 721.475 839.056, 721.845 837.727, 723.523 838.371 C 724.699 838.822, 724.844 838.561, 724.158 837.227 C 723.670 836.277, 723.496 834.864, 723.773 834.087 C 724.049 833.310, 723.598 832.179, 722.771 831.574 C 720.792 830.128, 722.465 828.608, 726.500 828.187 C 729.127 827.912, 729.295 828.037, 727.851 829.187 C 724.986 831.468, 724.737 834.466, 727.236 836.582 L 729.500 838.500 727.670 836.333 C 726.203 834.596, 726.062 833.754, 726.955 832.083 C 728.270 829.628, 730.501 829.253, 729.584 831.641 C 729.090 832.929, 729.245 833.042, 730.301 832.165 C 731.042 831.551, 732.064 831.378, 732.574 831.782 C 733.083 832.185, 732.263 831.221, 730.750 829.639 C 729.237 828.057, 727.986 826.254, 727.968 825.631 C 727.951 825.009, 727.319 825.314, 726.564 826.310 C 725.744 827.391, 724.939 827.711, 724.564 827.104 C 724.219 826.545, 723.321 826.323, 722.569 826.612 C 721.817 826.900, 720.944 826.719, 720.629 826.209 C 720.314 825.699, 721.148 825.401, 722.483 825.548 C 723.817 825.694, 725.413 825.208, 726.028 824.466 C 726.643 823.725, 727.676 823.243, 728.323 823.396 C 728.970 823.548, 729.163 823.483, 728.750 823.253 C 728.337 823.022, 728 822.228, 728 821.488 C 728 820.748, 727.271 819.414, 726.381 818.524 C 725.490 817.633, 725.029 816.637, 725.356 816.311 C 725.683 815.984, 726.829 816.793, 727.904 818.108 C 729.382 819.917, 730.143 820.220, 731.028 819.351 C 732.299 818.103, 731.459 814, 729.933 814 C 729.420 814, 729 814.450, 729 815 C 729 815.550, 729.450 816, 730 816 C 730.550 816, 731 816.675, 731 817.500 C 731 819.721, 729.649 819.305, 728.449 816.714 C 727.614 814.911, 727.768 814.054, 729.199 812.547 C 730.385 811.297, 731 811.097, 731 811.960 C 731 813.187, 735.939 818.471, 736.463 817.805 C 736.596 817.637, 735.196 815.553, 733.352 813.172 C 731.508 810.792, 730 809.385, 730 810.045 C 730 810.950, 729.626 810.935, 728.477 809.981 C 727.204 808.924, 727.057 808.986, 727.584 810.359 C 727.934 811.271, 727.723 812, 727.107 812 C 726.498 812, 726 811.411, 726 810.691 C 726 808.921, 728.927 805.093, 728.968 806.809 C 728.986 807.529, 729.430 807.852, 729.956 807.527 C 730.482 807.202, 730.662 806.284, 730.356 805.486 C 729.937 804.394, 729.331 804.288, 727.900 805.053 C 726.403 805.855, 726 805.733, 726 804.476 C 726 803.599, 726.450 803.160, 727 803.500 C 727.550 803.840, 728 803.443, 728 802.618 C 728 800.304, 726.073 799.653, 725.242 801.686 C 724.312 803.960, 719.884 804.466, 720.754 802.199 C 721.120 801.244, 720.928 800.927, 720.239 801.352 C 719.634 801.726, 718.890 801.631, 718.587 801.140 C 718.283 800.649, 719.490 800.374, 721.268 800.529 C 723.045 800.683, 725.022 800.381, 725.661 799.856 C 726.406 799.245, 727.054 799.279, 727.470 799.951 C 727.826 800.528, 728.611 801, 729.214 801 C 729.831 801, 729.628 800.236, 728.748 799.250 C 727.403 797.742, 727.383 797.320, 728.606 796.199 C 730.398 794.556, 732.082 795.517, 731.381 797.782 C 730.945 799.191, 731.063 799.164, 732.041 797.631 C 732.718 796.568, 732.844 795.490, 732.333 795.131 C 731.838 794.784, 731.504 793.938, 731.592 793.250 C 731.679 792.563, 731.806 791.520, 731.875 790.933 C 731.944 790.346, 732.862 790.139, 733.916 790.473 C 734.970 790.808, 736.082 790.677, 736.387 790.182 C 736.693 789.688, 735.381 789.407, 733.472 789.559 C 730.621 789.785, 730 789.491, 730 787.917 C 730 786.863, 730.675 786, 731.500 786 C 732.325 786, 733 786.450, 733 787 C 733 787.550, 733.775 788, 734.723 788 C 736.138 788, 736.049 787.723, 734.223 786.443 C 731.958 784.857, 731.088 780, 733.068 780 C 733.656 780, 733.174 778.648, 731.997 776.996 C 730.187 774.454, 730.090 773.903, 731.366 773.413 C 732.195 773.095, 732.629 772.197, 732.330 771.417 C 731.582 769.468, 730.235 769.639, 729.719 771.750 C 729.483 772.712, 729.404 771.025, 729.543 768 C 729.681 764.975, 730.144 761.634, 730.571 760.576 C 731.186 759.053, 731.008 758.783, 729.717 759.279 C 728.360 759.799, 728.236 759.509, 728.980 757.552 C 729.541 756.077, 729.462 753.858, 728.770 751.601 C 727.584 747.739, 728.291 745.891, 730.217 747.817 C 731.128 748.728, 731.124 749, 730.200 749 C 729.540 749, 729 749.450, 729 750 C 729 751.621, 730.731 751.143, 731.427 749.330 C 731.780 748.411, 731.490 747.287, 730.784 746.830 C 729.754 746.165, 729.778 745.821, 730.905 745.095 C 732.502 744.067, 733.258 737.722, 731.667 738.706 C 731.078 739.070, 730.909 738.679, 731.261 737.763 C 731.864 736.191, 729.802 735.865, 728.362 737.304 C 727.980 737.687, 726.911 738, 725.988 738 C 724.534 738, 724.283 739.427, 724.112 748.666 C 724.003 754.532, 723.596 759.900, 723.207 760.595 C 722.818 761.290, 722.625 656.703, 722.779 528.179 C 722.950 384.655, 722.686 290.052, 722.096 282.971 C 718.926 244.974, 695.044 216.133, 658.779 206.504 C 645.339 202.936, 631.143 202.018, 589.264 202.009 L 552.029 202 549.098 196.250 C 540.866 180.099, 521.237 170.976, 503.618 175.112 M 508.500 195.883 C 489.470 200.885, 482.605 222.667, 496.010 235.510 C 501.475 240.746, 518.773 241.322, 528.367 236.587 C 535.880 232.879, 538.222 228.880, 538.222 219.760 C 538.222 211.506, 536.646 206.869, 532.390 202.603 C 526.869 197.069, 515.817 193.960, 508.500 195.883 M 510.241 209.995 C 504.289 213.623, 501.389 221.122, 504.030 226.055 C 506.653 230.957, 515.429 232.350, 522.750 229.027 C 526.893 227.147, 527 226.977, 526.996 222.299 C 526.992 216.581, 524.387 211.768, 520.094 209.549 C 516.151 207.510, 514.169 207.599, 510.241 209.995 M 424.500 224 L 378.500 224.500 369 227.784 C 345.380 235.950, 329.549 253.926, 325.575 277.093 C 324.297 284.538, 324.149 316.660, 324.465 517.593 C 324.720 679.193, 325.159 750.931, 325.913 754.221 C 332.135 781.353, 351.840 800.785, 379.500 807.064 C 383.108 807.884, 420.277 808.160, 513 808.059 C 636.691 807.924, 641.811 807.845, 649.801 805.966 C 659.084 803.782, 670.384 798.829, 676.658 794.193 C 682.561 789.831, 691.500 778.392, 694.865 770.891 C 700.875 757.499, 700.500 774.453, 700.500 516 L 700.500 278.500 697.614 269.694 C 694.213 259.320, 689.530 251.816, 681.150 243.313 C 673.931 235.989, 665.631 231.160, 654.051 227.544 C 643.915 224.380, 640.884 224.180, 593.386 223.533 L 556.272 223.028 555.643 228.384 C 554.116 241.375, 545.441 252.319, 532.803 257.199 C 526.290 259.715, 511.862 260.662, 503.606 259.118 C 486.538 255.924, 473.519 243.818, 472.264 229.972 C 471.963 226.656, 471.443 223.843, 471.109 223.722 C 470.774 223.600, 449.800 223.725, 424.500 224 M 501.500 285.113 C 496.092 286.345, 487.276 289.888, 482.966 292.561 C 471.462 299.695, 459.708 314.845, 455.638 327.785 C 452.375 338.161, 451.644 354.728, 452.870 390.500 C 453.938 421.639, 454.549 425.239, 461.043 438.687 C 469.871 456.969, 486.267 469.531, 504.703 472.138 C 523.637 474.816, 539.703 469.913, 552.460 457.563 C 560.326 449.947, 565.127 442.461, 569.643 430.767 C 572.885 422.374, 573.225 420.494, 573.660 408.549 C 573.922 401.372, 573.724 381.325, 573.221 364 C 572.374 334.831, 572.136 332.056, 570.017 326.500 C 559.633 299.284, 538.116 283.696, 511.500 284.108 C 508.200 284.159, 503.700 284.611, 501.500 285.113 M 501.836 308.860 C 492.305 312.007, 485.136 317.700, 480.251 326 C 477.595 330.513, 475 339.376, 475.001 343.932 L 475.002 347.500 508.251 347.317 C 526.538 347.216, 542.737 347.103, 544.250 347.067 C 546.888 347.003, 547.001 346.787, 547.030 341.750 C 547.065 335.752, 548.429 336.892, 550.028 344.256 C 550.876 348.161, 550.914 348.014, 550.509 342.428 C 549.537 329.043, 540.943 316.055, 529.286 310.351 C 521.897 306.736, 510.195 306.101, 501.836 308.860 M 418.190 368.026 C 412.023 371.785, 411.595 374.417, 412.820 401 C 414.013 426.879, 414.867 431.696, 421.079 447.583 C 426.556 461.591, 433.313 471.635, 444.907 483 C 459.151 496.963, 477.859 507.001, 495.293 510.037 L 502 511.205 502.001 528.853 L 502.002 546.500 477.547 546.201 C 456.894 545.948, 452.621 546.145, 450.063 547.468 C 446.557 549.281, 444 553.639, 444 557.802 C 444 561.190, 447.627 567.006, 450.694 568.535 C 452.134 569.253, 472.481 569.582, 513.320 569.549 L 573.813 569.500 577.657 566.403 C 584.509 560.881, 584.492 552.627, 577.618 547.724 C 574.559 545.542, 574.024 545.507, 549.250 545.849 L 524 546.198 524 541.757 C 524 527.949, 525.385 510.211, 526.432 510.612 C 528.034 511.227, 545.605 506.643, 552.823 503.727 C 582.875 491.589, 606.030 461.497, 612.580 426.069 C 613.493 421.129, 614.394 409.029, 614.706 397.500 C 615.320 374.861, 614.677 371.642, 608.810 367.974 C 604.415 365.226, 599.580 365.960, 595.550 369.986 L 592.500 373.033 591.898 398.266 C 591.236 426.061, 590.604 429.845, 584.452 442.888 C 573.750 465.579, 553.123 483.002, 531.730 487.421 C 522.854 489.254, 516.005 489.385, 503.556 487.959 C 470.860 484.213, 446.085 461.440, 437.382 427.133 C 435.257 418.758, 435 415.539, 435 397.340 C 435 381.844, 434.654 376.107, 433.560 373.490 C 432.042 369.856, 426.868 366.007, 423.500 366.007 C 422.400 366.007, 420.010 366.916, 418.190 368.026 M 474.832 378.088 C 474.649 381.986, 474.688 385.361, 474.917 385.588 C 475.582 386.246, 525.241 386.056, 539.250 385.342 L 552 384.691 552 377.846 L 552 371 513.582 371 L 475.164 371 474.832 378.088 M 475.466 411.576 C 477.178 425.277, 481.796 434.254, 491.319 442.389 C 495.002 445.536, 498.346 447.387, 502.081 448.346 C 508.260 449.932, 510.722 449.575, 508.884 447.360 C 507.936 446.218, 508.056 446.084, 509.523 446.647 C 510.765 447.124, 511.103 446.975, 510.605 446.170 C 510.207 445.526, 509.095 445, 508.132 445 C 507.170 445, 505.509 444.340, 504.441 443.532 C 502.670 442.193, 502.807 442.149, 505.993 443.032 C 512.158 444.740, 520.085 444.174, 525.534 441.636 C 531.565 438.828, 542.369 427.519, 541.650 424.768 C 541.395 423.796, 541.618 423, 542.145 423 C 543.607 423, 546 416.502, 546 412.532 C 546 410.589, 545.888 408.969, 545.750 408.931 C 545.612 408.892, 536.500 408.466, 525.500 407.982 C 514.500 407.499, 498.577 406.783, 490.115 406.391 L 474.729 405.678 475.466 411.576 M 550.158 410 C 550.158 411.375, 550.385 411.938, 550.662 411.250 C 550.940 410.563, 550.940 409.438, 550.662 408.750 C 550.385 408.063, 550.158 408.625, 550.158 410 M 547.195 411.500 C 547.215 413.150, 547.439 413.704, 547.693 412.731 C 547.947 411.758, 547.930 410.408, 547.656 409.731 C 547.382 409.054, 547.175 409.850, 547.195 411.500 M 542.707 433.678 C 543.011 434.471, 542.664 434.880, 541.861 434.675 C 541.113 434.484, 540.840 434.517, 541.256 434.749 C 541.672 434.981, 541.758 435.582, 541.447 436.085 C 541.136 436.588, 541.286 437, 541.780 437 C 542.275 437, 543.157 435.950, 543.742 434.667 C 544.561 432.870, 544.505 432.333, 543.498 432.333 C 542.779 432.333, 542.423 432.938, 542.707 433.678 M 365.841 609.519 C 362.655 611.256, 359 616.855, 359 620 C 359 623.490, 362.662 628.612, 366.438 630.404 C 369.534 631.873, 383.060 631.996, 515.037 631.760 L 660.229 631.500 663.506 627.709 C 665.308 625.624, 666.987 622.850, 667.236 621.544 C 667.833 618.425, 665.912 614.107, 662.547 611 L 659.839 608.500 514.170 608.285 C 388.545 608.099, 368.134 608.268, 365.841 609.519 M 365.304 667.250 C 359.015 671.717, 357.554 676.924, 361.016 682.526 C 365.309 689.472, 354.131 689, 514.436 689 C 647.106 689, 659.278 688.864, 661.586 687.352 C 666.976 683.820, 668.434 676.865, 664.974 671.190 C 660.963 664.611, 670.555 665, 512.268 665 L 368.472 665 365.304 667.250 M 725.813 684.683 C 726.534 684.972, 727.397 684.936, 727.729 684.604 C 728.061 684.272, 727.471 684.036, 726.417 684.079 C 725.252 684.127, 725.015 684.364, 725.813 684.683 M 724.651 688.468 C 724.341 689.275, 724.518 690.202, 725.044 690.527 C 725.570 690.852, 726 690.454, 726 689.642 C 726 688.831, 726.563 687.940, 727.250 687.662 C 728.039 687.344, 727.895 687.129, 726.857 687.079 C 725.953 687.036, 724.960 687.661, 724.651 688.468 M 724 694.500 C 724 695.325, 724.177 696, 724.393 696 C 724.609 696, 725.045 695.325, 725.362 694.500 C 725.678 693.675, 725.501 693, 724.969 693 C 724.436 693, 724 693.675, 724 694.500 M 726.250 720.662 C 724.631 721.316, 724.649 722.651, 726.286 723.279 C 727.053 723.574, 727.571 723.013, 727.571 721.886 C 727.571 720.849, 727.555 720.036, 727.536 720.079 C 727.516 720.122, 726.938 720.385, 726.250 720.662 M 369.479 723.005 C 360.419 724.951, 356.598 732.548, 361.026 739.810 C 365.060 746.428, 355.190 746.046, 515.069 745.760 L 660.154 745.500 663.577 741.765 C 666.331 738.759, 667 737.214, 667 733.855 C 667 730.324, 666.422 729.138, 663.250 726.160 L 659.500 722.640 516 722.498 C 437.075 722.420, 371.141 722.648, 369.479 723.005 M 731 728 C 731.825 728.533, 732.950 728.969, 733.500 728.969 C 734.050 728.969, 733.825 728.533, 733 728 C 732.175 727.467, 731.050 727.031, 730.500 727.031 C 729.950 727.031, 730.175 727.467, 731 728 M 727.977 740.056 C 727.027 742.350, 726.996 743.396, 727.856 744.256 C 728.715 745.115, 729 744.588, 729 742.141 C 729 740.248, 729.414 739.138, 729.989 739.493 C 730.555 739.843, 730.723 739.442, 730.382 738.552 C 729.575 736.451, 729.433 736.540, 727.977 740.056 M 740 749.393 C 740 749.609, 740.698 750.054, 741.552 750.382 C 742.442 750.723, 742.843 750.555, 742.493 749.989 C 741.906 749.038, 740 748.583, 740 749.393 M 727 755 C 727 755.550, 727.450 756, 728 756 C 728.550 756, 729 755.550, 729 755 C 729 754.450, 728.550 754, 728 754 C 727.450 754, 727 754.450, 727 755 M 733.215 757.280 C 734.521 758.338, 734.652 758.948, 733.765 759.835 C 732.475 761.125, 733.023 761.312, 735.412 760.395 C 736.279 760.063, 736.740 759.388, 736.435 758.895 C 736.131 758.403, 736.610 758, 737.500 758 C 738.411 758, 738.824 757.525, 738.446 756.913 C 737.981 756.160, 737.454 756.146, 736.734 756.866 C 736.027 757.573, 735.021 757.583, 733.597 756.898 C 731.701 755.987, 731.665 756.023, 733.215 757.280 M 738.500 761 C 738.840 761.550, 739.316 762, 739.559 762 C 739.802 762, 740 761.550, 740 761 C 740 760.450, 739.523 760, 738.941 760 C 738.359 760, 738.160 760.450, 738.500 761 M 735.500 763 C 735.160 763.550, 735.610 764, 736.500 764 C 737.390 764, 737.840 763.550, 737.500 763 C 737.160 762.450, 736.710 762, 736.500 762 C 736.290 762, 735.840 762.450, 735.500 763 M 731 764 C 731 764.550, 731.675 765, 732.500 765 C 733.325 765, 734 765.450, 734 766 C 734 766.550, 733.550 767, 733 767 C 732.450 767, 732 767.510, 732 768.133 C 732 769.463, 735.856 773, 737.306 773 C 737.856 773, 737.337 772.160, 736.153 771.133 C 733.729 769.030, 733.396 767.393, 735.250 766.698 C 736.116 766.373, 735.886 765.743, 734.500 764.647 C 732.175 762.807, 731 762.590, 731 764 M 741.507 763.989 C 741.157 764.555, 741.558 764.723, 742.448 764.382 C 744.180 763.717, 744.497 763, 743.059 763 C 742.541 763, 741.843 763.445, 741.507 763.989 M 719.767 769.586 C 718.815 772.766, 718.204 775.538, 718.412 775.745 C 719.106 776.440, 722.193 767.238, 721.844 765.510 C 721.655 764.571, 720.720 766.405, 719.767 769.586 M 723.377 769.751 C 723.309 771.263, 723.459 771.938, 723.710 771.250 C 724.348 769.504, 726 769.685, 726 771.500 C 726 772.325, 726.450 773, 727 773 C 728.630 773, 728.141 770.437, 726.171 768.655 C 723.737 766.452, 723.521 766.537, 723.377 769.751 M 741.500 769 C 741.840 769.550, 742.316 770, 742.559 770 C 742.802 770, 743 769.550, 743 769 C 743 768.450, 742.523 768, 741.941 768 C 741.359 768, 741.160 768.450, 741.500 769 M 739 771 C 739 771.550, 739.450 772, 740 772 C 740.550 772, 741 771.550, 741 771 C 741 770.450, 740.550 770, 740 770 C 739.450 770, 739 770.450, 739 771 M 725 775.514 C 725 775.796, 725.545 776.901, 726.212 777.968 C 726.879 779.036, 727.042 780.267, 726.575 780.705 C 726.108 781.142, 725.525 780.938, 725.280 780.250 C 725.034 779.563, 724.366 779, 723.794 779 C 723.189 779, 723.302 779.658, 724.063 780.576 C 725.131 781.863, 725.134 782.299, 724.079 782.951 C 723.169 783.514, 723.114 783.952, 723.893 784.434 C 724.502 784.810, 724.993 785.654, 724.985 786.309 C 724.973 787.227, 724.796 787.228, 724.214 786.313 C 723.799 785.659, 722.205 784.648, 720.672 784.066 C 718.909 783.395, 718.112 783.372, 718.502 784.003 C 718.841 784.551, 719.729 785, 720.476 785 C 721.222 785, 721.992 785.475, 722.185 786.054 C 722.378 786.634, 723.404 787.236, 724.464 787.392 C 725.524 787.547, 726.590 788.270, 726.832 788.997 C 727.110 789.830, 726.729 790.110, 725.803 789.755 C 724.940 789.423, 724.333 789.770, 724.333 790.595 C 724.333 792.332, 725.197 792.384, 726.912 790.750 C 727.985 789.728, 728.098 789.957, 727.532 792 C 727.150 793.375, 725.725 795.513, 724.363 796.750 C 722.557 798.392, 722.309 799, 723.444 799 C 724.300 799, 725 798.543, 725 797.985 C 725 797.427, 726.462 796.029, 728.250 794.879 C 730.038 793.728, 730.649 793.070, 729.609 793.416 C 728.021 793.945, 727.916 793.806, 728.958 792.551 C 729.963 791.340, 729.873 790.730, 728.488 789.346 C 726.875 787.732, 726.880 787.561, 728.580 786.318 C 730.313 785.050, 730.312 784.949, 728.538 783.652 C 727.524 782.910, 727.002 781.806, 727.378 781.198 C 728.239 779.805, 727.086 775, 725.892 775 C 725.401 775, 725 775.231, 725 775.514 M 735 776 C 735 776.550, 735.477 777, 736.059 777 C 736.641 777, 736.840 776.550, 736.500 776 C 736.160 775.450, 735.684 775, 735.441 775 C 735.198 775, 735 775.450, 735 776 M 715.237 781.184 C 713.588 785.553, 714.273 785.747, 716.305 781.487 C 717.219 779.569, 717.624 778, 717.203 778 C 716.783 778, 715.898 779.433, 715.237 781.184 M 734.192 782.065 C 733.527 783.129, 733.382 784, 733.869 784 C 735.242 784, 737.202 781.243, 736.249 780.654 C 735.782 780.365, 734.856 781, 734.192 782.065 M 725.015 783.750 C 725.024 784.163, 725.411 785.100, 725.876 785.834 C 726.565 786.921, 726.827 786.893, 727.292 785.682 C 727.606 784.864, 727.593 783.927, 727.264 783.598 C 726.424 782.757, 724.997 782.853, 725.015 783.750 M 737.813 784.683 C 738.534 784.972, 739.397 784.936, 739.729 784.604 C 740.061 784.272, 739.471 784.036, 738.417 784.079 C 737.252 784.127, 737.015 784.364, 737.813 784.683 M 721 789.059 C 721 789.641, 721.450 789.840, 722 789.500 C 722.550 789.160, 723 788.684, 723 788.441 C 723 788.198, 722.550 788, 722 788 C 721.450 788, 721 788.477, 721 789.059 M 734.500 794 C 735.495 795.100, 736.535 796, 736.810 796 C 737.085 796, 736.495 795.100, 735.500 794 C 734.505 792.900, 733.465 792, 733.190 792 C 732.915 792, 733.505 792.900, 734.500 794 M 700.946 802.650 C 699.051 804.658, 698.175 805.923, 699 805.461 C 699.825 805, 701.093 803.800, 701.818 802.794 C 702.544 801.789, 703.626 801.269, 704.223 801.638 C 704.840 802.019, 705.024 801.848, 704.648 801.240 C 704.285 800.652, 704.553 799.943, 705.244 799.664 C 705.935 799.386, 706.026 799.122, 705.446 799.079 C 704.867 799.036, 702.842 800.643, 700.946 802.650 M 738 800.868 C 738 801.410, 737.212 802.012, 736.250 802.206 C 734.801 802.498, 734.759 802.662, 736.005 803.154 C 737.777 803.855, 740.500 801.427, 738.990 800.494 C 738.446 800.157, 738 800.326, 738 800.868 M 730.500 802 C 728.790 802.735, 728.754 802.870, 730.250 802.930 C 731.212 802.968, 732 803.450, 732 804 C 732 804.550, 732.505 805, 733.122 805 C 733.948 805, 733.950 804.645, 733.131 803.658 C 732.519 802.920, 732.313 802.020, 732.675 801.658 C 733.496 800.837, 733.039 800.909, 730.500 802 M 715 802.711 C 715 803.285, 715.788 804.373, 716.750 805.128 C 718.369 806.397, 718.390 806.350, 717.033 804.500 C 716.226 803.400, 715.439 802.313, 715.283 802.083 C 715.127 801.854, 715 802.137, 715 802.711 M 719.564 807.707 C 719.022 809.132, 719.136 809.247, 720.124 808.267 C 720.808 807.588, 721.115 806.781, 720.807 806.474 C 720.499 806.166, 719.940 806.721, 719.564 807.707 M 723.491 807.551 C 723.009 808.623, 722.577 809.950, 722.531 810.500 C 722.485 811.050, 722.095 812.063, 721.665 812.750 C 721.234 813.438, 721.233 814.563, 721.663 815.250 C 722.092 815.938, 722.538 817.121, 722.653 817.881 C 722.767 818.640, 723.343 819.743, 723.931 820.331 C 725.650 822.050, 725.244 818.793, 723.413 816.180 C 722.254 814.525, 722.117 813.564, 722.905 812.615 C 723.497 811.901, 723.662 810.995, 723.270 810.604 C 722.878 810.212, 723.162 809.518, 723.901 809.061 C 724.639 808.605, 725.047 807.640, 724.805 806.916 C 724.505 806.014, 724.092 806.213, 723.491 807.551 M 733 809.378 C 733 809.585, 733.685 810.324, 734.523 811.019 C 735.796 812.076, 735.943 812.014, 735.416 810.641 C 734.878 809.240, 733 808.257, 733 809.378 M 730.500 822 C 730.840 822.550, 731.316 823, 731.559 823 C 731.802 823, 732 822.550, 732 822 C 732 821.450, 731.523 821, 730.941 821 C 730.359 821, 730.160 821.450, 730.500 822 M 733.260 825.485 C 732.478 826.373, 732.386 827.120, 733.010 827.506 C 733.554 827.843, 734 827.593, 734 826.952 C 734 826.282, 734.698 826.054, 735.641 826.416 C 737.014 826.943, 737.076 826.796, 736.019 825.523 C 734.531 823.730, 734.801 823.734, 733.260 825.485 M 406 832.755 C 406 832.936, 406.900 834.050, 408 835.230 C 409.100 836.411, 410.007 836.955, 410.015 836.439 C 410.024 835.922, 410.449 836.162, 410.961 836.971 C 411.473 837.780, 412.253 838.056, 412.696 837.584 C 413.138 837.112, 412.935 836.524, 412.244 836.278 C 411.553 836.031, 411.242 835.418, 411.553 834.915 C 411.864 834.412, 411.641 834, 411.059 834 C 410.477 834, 409.993 834.563, 409.985 835.250 C 409.974 836.095, 409.667 836.023, 409.037 835.026 C 408.424 834.056, 408.510 833.303, 409.290 832.821 C 409.982 832.393, 409.544 832.159, 408.237 832.257 C 407.007 832.350, 406 832.574, 406 832.755 M 719.218 835.977 C 720.476 837.993, 722 838.684, 722 837.241 C 722 836.823, 721.090 835.913, 719.977 835.218 C 718.101 834.046, 718.046 834.101, 719.218 835.977 M 718.638 840.500 C 718.955 841.325, 719.841 842, 720.607 842 C 722.502 842, 722.372 840.357, 720.418 839.607 C 718.160 838.740, 717.995 838.823, 718.638 840.500 M 414.500 841 C 414.840 841.550, 415.316 842, 415.559 842 C 415.802 842, 416 841.550, 416 841 C 416 840.450, 415.523 840, 414.941 840 C 414.359 840, 414.160 840.450, 414.500 841 M 411.459 844.067 C 411.096 844.653, 411.014 845.348, 411.276 845.610 C 411.538 845.872, 412.019 845.392, 412.345 844.543 C 413.021 842.781, 412.445 842.471, 411.459 844.067 M 718.364 846.494 C 718.048 847.316, 717.419 847.759, 716.964 847.478 C 716.510 847.197, 715.913 847.331, 715.638 847.776 C 715.363 848.221, 715.963 848.647, 716.971 848.723 C 718.015 848.802, 719.020 848.031, 719.308 846.930 C 719.902 844.658, 719.194 844.331, 718.364 846.494 M 704.455 852.047 C 702.053 854.554, 701.793 855.254, 702.991 855.995 C 703.927 856.573, 704.725 856.467, 705.224 855.697 C 705.813 854.789, 706.211 854.827, 706.875 855.857 C 707.495 856.818, 707.952 856.886, 708.444 856.090 C 708.826 855.473, 709.506 855.195, 709.956 855.473 C 710.405 855.751, 711.313 855.327, 711.973 854.532 C 712.920 853.392, 712.838 852.606, 711.587 850.820 C 710.141 848.756, 709.425 849.356, 709.882 852.250 C 709.947 852.663, 709.523 853, 708.941 853 C 708.359 853, 708.160 853.450, 708.500 854 C 709.487 855.597, 708.012 855.156, 706.179 853.306 C 704.622 851.735, 704.621 851.658, 706.167 852.243 C 707.187 852.629, 708.061 852.284, 708.417 851.355 C 709.747 847.891, 708.174 848.165, 704.455 852.047 M 432.769 853.172 C 430.537 854.363, 430.078 854.929, 431.321 854.958 C 432.323 854.981, 433.799 854.344, 434.600 853.542 C 435.402 852.741, 436.674 852.322, 437.428 852.611 C 438.181 852.900, 439.035 852.752, 439.325 852.282 C 440.239 850.803, 436.177 851.355, 432.769 853.172 M 710.263 853.161 C 710.142 854.771, 710.385 855.015, 711.251 854.149 C 712.008 853.392, 712.063 852.663, 711.412 852.012 C 710.761 851.361, 710.369 851.753, 710.263 853.161 M 714.079 852.583 C 714.127 853.748, 714.364 853.985, 714.683 853.188 C 714.972 852.466, 714.936 851.603, 714.604 851.271 C 714.272 850.939, 714.036 851.529, 714.079 852.583 M 458.211 857.601 C 457.501 858.370, 457.362 859, 457.902 859 C 458.940 859, 460.443 857.098, 459.850 856.534 C 459.658 856.351, 458.920 856.831, 458.211 857.601 M 435.964 858.836 C 436.623 860.120, 437.436 860.897, 437.771 860.562 C 438.107 860.227, 437.568 859.176, 436.574 858.226 C 434.846 856.576, 434.819 856.603, 435.964 858.836 M 466.078 860.829 C 467.410 862.512, 468.841 863.914, 469.258 863.945 C 470.511 864.036, 467.855 860.391, 465.680 859.032 C 463.926 857.937, 463.980 858.177, 466.078 860.829 M 689.479 860.976 C 690.462 862.063, 691.684 862.695, 692.193 862.380 C 692.703 862.066, 692.305 861.191, 691.310 860.436 C 688.600 858.381, 687.440 858.723, 689.479 860.976 M 472 862.500 C 473.292 863.875, 474.516 865, 474.721 865 C 475.552 865, 471.431 860.060, 470.576 860.031 C 470.067 860.014, 470.708 861.125, 472 862.500 M 506 863.393 C 506 863.609, 506.698 864.054, 507.552 864.382 C 508.442 864.723, 508.843 864.555, 508.493 863.989 C 507.906 863.038, 506 862.583, 506 863.393 M 572.461 864.957 C 574.639 867.364, 575.138 867.524, 574.391 865.577 C 574.091 864.795, 573.118 863.875, 572.229 863.534 C 570.901 863.025, 570.942 863.279, 572.461 864.957 M 680.872 864.750 C 679.603 866.369, 679.650 866.390, 681.500 865.033 C 682.600 864.226, 683.688 863.439, 683.917 863.283 C 684.146 863.127, 683.863 863, 683.289 863 C 682.715 863, 681.627 863.788, 680.872 864.750 M 480.878 865.904 C 481.636 866.384, 481.947 867.277, 481.569 867.888 C 480.834 869.078, 482.228 869.439, 483.325 868.342 C 484.160 867.507, 482.124 864.995, 480.628 865.015 C 479.976 865.024, 480.081 865.399, 480.878 865.904 M 496.500 866 C 496.160 866.550, 496.359 867, 496.941 867 C 497.523 867, 498 866.550, 498 866 C 498 865.450, 497.802 865, 497.559 865 C 497.316 865, 496.840 865.450, 496.500 866 M 505 865.409 C 505 865.599, 505.675 866.315, 506.500 867 C 507.365 867.718, 508 867.815, 508 867.229 C 508 866.671, 507.325 865.955, 506.500 865.638 C 505.675 865.322, 505 865.219, 505 865.409 M 461.352 866.993 C 458.944 867.965, 457.312 870, 458.941 870 C 459.523 870, 460 869.637, 460 869.193 C 460 868.749, 461.238 867.897, 462.750 867.299 C 464.262 866.702, 465.050 866.193, 464.500 866.170 C 463.950 866.146, 462.534 866.517, 461.352 866.993 M 470.667 866.667 C 469.609 867.724, 469.886 868.742, 471.387 869.318 C 472.360 869.692, 472.623 869.276, 472.270 867.925 C 471.711 865.786, 471.619 865.714, 470.667 866.667 M 683.500 867 C 683.160 867.550, 683.359 868, 683.941 868 C 684.523 868, 685 867.550, 685 867 C 685 866.450, 684.802 866, 684.559 866 C 684.316 866, 683.840 866.450, 683.500 867 M 530.597 868.844 C 530.251 869.404, 530.455 870.163, 531.050 870.531 C 532.588 871.481, 533.580 870.180, 532.296 868.896 C 531.578 868.178, 531.019 868.161, 530.597 868.844 M 593.851 869.251 C 594.608 870.008, 595.337 870.063, 595.988 869.412 C 596.639 868.761, 596.247 868.369, 594.839 868.263 C 593.229 868.142, 592.985 868.385, 593.851 869.251 M 654.947 869.274 C 655.683 870.250, 656.007 871.327, 655.667 871.667 C 655.327 872.007, 654.250 871.683, 653.274 870.947 C 651.584 869.673, 651.583 869.700, 653.243 871.512 C 654.610 873.004, 655.248 873.152, 656.200 872.200 C 657.152 871.248, 657.004 870.610, 655.512 869.243 C 653.700 867.583, 653.673 867.584, 654.947 869.274 M 688 868.787 C 688 869.220, 689.007 869.650, 690.237 869.743 C 691.996 869.875, 692.156 869.710, 690.987 868.971 C 689.159 867.815, 688 867.744, 688 868.787 M 585 870 C 585 870.550, 585.450 871, 586 871 C 586.550 871, 587 870.550, 587 870 C 587 869.450, 586.550 869, 586 869 C 585.450 869, 585 869.450, 585 870 M 516 870.906 C 516 871.405, 514.987 871.617, 513.750 871.378 C 511.544 870.952, 511.546 870.964, 513.842 871.974 C 516.252 873.033, 518 872.599, 518 870.941 C 518 870.423, 517.550 870, 517 870 C 516.450 870, 516 870.408, 516 870.906 M 538 871 C 538 871.550, 538.413 872, 538.918 872 C 539.423 872, 540.661 872.286, 541.668 872.635 C 543.278 873.192, 543.258 873.075, 541.500 871.666 C 539.182 869.809, 538 869.584, 538 871 M 566 870.878 C 566 871.360, 566.635 872.282, 567.411 872.926 C 568.491 873.823, 568.996 873.815, 569.565 872.894 C 570.037 872.131, 569.886 871.952, 569.155 872.405 C 568.470 872.827, 568 872.483, 568 871.559 C 568 870.702, 567.550 870, 567 870 C 566.450 870, 566 870.395, 566 870.878 M 590.813 870.683 C 591.534 870.972, 592.397 870.936, 592.729 870.604 C 593.061 870.272, 592.471 870.036, 591.417 870.079 C 590.252 870.127, 590.015 870.364, 590.813 870.683 M 628.500 871 C 628.840 871.550, 629.316 872, 629.559 872 C 629.802 872, 630 871.550, 630 871 C 630 870.450, 629.523 870, 628.941 870 C 628.359 870, 628.160 870.450, 628.500 871 M 658.638 871.500 C 658.322 872.325, 658.499 873, 659.031 873 C 659.564 873, 660 872.325, 660 871.500 C 660 870.675, 659.823 870, 659.607 870 C 659.391 870, 658.955 870.675, 658.638 871.500 M 682.295 871.448 C 681.352 872.521, 681.362 872.925, 682.340 873.300 C 683.047 873.571, 683.653 872.958, 683.733 871.890 C 683.901 869.671, 683.866 869.660, 682.295 871.448 M 500.638 872.500 C 500.322 873.325, 500.499 874, 501.031 874 C 501.564 874, 502 873.325, 502 872.500 C 502 871.675, 501.823 871, 501.607 871 C 501.391 871, 500.955 871.675, 500.638 872.500 M 620 872.559 C 620 873.416, 620.457 873.835, 621.016 873.490 C 621.575 873.144, 621.774 872.443, 621.457 871.931 C 620.600 870.544, 620 870.802, 620 872.559 M 574 873 C 574 873.550, 574.423 874, 574.941 874 C 575.459 874, 576.160 873.550, 576.500 873 C 576.840 872.450, 576.416 872, 575.559 872 C 574.702 872, 574 872.450, 574 873 M 615.500 873 C 615.840 873.550, 616.316 874, 616.559 874 C 616.802 874, 617 873.550, 617 873 C 617 872.450, 616.523 872, 615.941 872 C 615.359 872, 615.160 872.450, 615.500 873 M 643.560 872.904 C 643.128 873.602, 643.268 874.668, 643.870 875.270 C 645.346 876.746, 645.906 875.934, 645.047 873.566 C 644.528 872.138, 644.140 871.965, 643.560 872.904 M 563.624 874.539 C 562.659 877.053, 562.943 877.702, 564.122 875.675 C 564.706 874.671, 564.973 873.639, 564.715 873.382 C 564.458 873.124, 563.966 873.645, 563.624 874.539 M 596 874 C 596 874.550, 596.477 875, 597.059 875 C 597.641 875, 597.840 874.550, 597.500 874 C 597.160 873.450, 596.684 873, 596.441 873 C 596.198 873, 596 873.450, 596 874 M 629 874 C 629 874.550, 629.450 875, 630 875 C 630.550 875, 631 874.550, 631 874 C 631 873.450, 630.550 873, 630 873 C 629.450 873, 629 873.450, 629 874 M 653.564 875.707 C 653.022 877.132, 653.136 877.247, 654.124 876.267 C 654.808 875.588, 655.115 874.781, 654.807 874.474 C 654.499 874.166, 653.940 874.721, 653.564 875.707 M 656.441 876.450 C 654.568 877.849, 654.580 877.880, 656.766 877.330 C 658.012 877.016, 659.276 876.363, 659.575 875.879 C 660.420 874.511, 658.591 874.844, 656.441 876.450 M 620.500 880 C 620.840 880.550, 621.316 881, 621.559 881 C 621.802 881, 622 880.550, 622 880 C 622 879.450, 621.523 879, 620.941 879 C 620.359 879, 620.160 879.450, 620.500 880" stroke="none" fill="black" fill-rule="evenodd"/>
</svg>