<svg xmlns="http://www.w3.org/2000/svg" width="407" height="108" viewBox="0 0 407 108" version="1.1">
	<path d="M 0 54.002 L 0 108.005 203.750 107.752 L 407.500 107.500 407.759 53.750 L 408.017 0 204.009 0 L 0 0 0 54.002 M 0.466 54.500 C 0.466 84.200, 0.594 96.206, 0.749 81.179 C 0.905 66.153, 0.905 41.853, 0.749 27.179 C 0.593 12.506, 0.466 24.800, 0.466 54.500 M 140.265 24.657 C 139.313 25.042, 139.371 25.816, 140.515 28.029 C 142.604 32.069, 142.480 32.256, 138 31.829 C 134.691 31.513, 134 31.754, 134 33.224 C 134 34.807, 135.086 35, 144 35 C 152.222 35, 154 34.733, 154 33.500 C 154 32.284, 155.617 32, 162.552 32 L 171.105 32 170.802 37.250 L 170.500 42.500 163.127 42.624 L 155.754 42.749 155.935 54.101 C 156.055 61.621, 156.518 65.709, 157.308 66.211 C 157.964 66.628, 161.988 66.976, 166.250 66.985 C 172.679 66.997, 174.341 66.659, 176 65 C 178.398 62.602, 178.605 59.446, 176.418 58.607 C 174.225 57.765, 174.285 57.727, 173.619 60.381 C 172.764 63.788, 165.310 65.306, 160.934 62.965 C 159.270 62.074, 159 60.816, 159 53.965 L 159 46 165 46 C 169.667 46, 171 46.333, 171 47.500 C 171 48.325, 171.787 49.001, 172.750 49.002 C 174.325 49.004, 174.469 47.961, 174.187 38.593 L 173.875 28.181 163.937 28.160 C 154.778 28.140, 154 28.289, 154 30.069 C 154 31.636, 153.292 31.998, 150.250 31.990 C 146.827 31.981, 146.354 31.632, 144.824 27.990 C 143.167 24.044, 142.674 23.683, 140.265 24.657 M 202 27 L 202 30 195.500 30 C 189.667 30, 189 30.205, 189 32 C 189 33.795, 189.667 34, 195.500 34 L 202 34 202 37.136 L 202 40.273 192.500 39.776 C 183.344 39.297, 183 39.355, 182.998 41.389 C 182.996 43.422, 183.392 43.490, 193.748 43.241 L 204.500 42.982 200.617 45.409 C 198.481 46.743, 196.176 47.621, 195.496 47.360 C 194.815 47.099, 194.008 47.536, 193.703 48.332 C 193.398 49.127, 190.977 50.577, 188.324 51.554 C 182.168 53.821, 181.858 54.125, 183.476 56.317 C 184.767 58.065, 184.972 58.055, 188.869 56.067 C 191.097 54.930, 193.163 54, 193.460 54 C 193.757 54, 194 57.375, 194 61.500 C 194 68.333, 194.178 69, 196 69 C 197.111 69, 198 68.333, 198 67.500 C 198 66.278, 199.667 66, 207 66 C 212.333 66, 216 66.407, 216 67 C 216 67.550, 216.916 68, 218.035 68 C 219.968 68, 220.056 67.485, 219.785 57.763 L 219.500 47.526 211.500 47.858 L 203.500 48.191 206.469 45.846 C 208.895 43.929, 210.999 43.409, 217.969 43 C 224.663 42.608, 226.500 42.177, 226.500 41 C 226.500 39.785, 225.264 39.565, 220 39.844 C 215.733 40.069, 213.844 39.850, 214.500 39.204 C 215.050 38.664, 217.611 36.418, 220.192 34.213 C 224.792 30.284, 224.846 30.171, 222.936 28.442 C 221.864 27.472, 220.841 26.864, 220.662 27.089 C 220.483 27.315, 219.586 28.613, 218.668 29.973 C 217.751 31.332, 217 31.895, 217 31.223 C 217 30.393, 215.039 30, 210.893 30 C 205.861 30, 204.893 29.736, 205.393 28.500 C 205.727 27.675, 206.273 26.325, 206.607 25.500 C 207.054 24.395, 206.527 24, 204.607 24 C 202.377 24, 202 24.434, 202 27 M 233.488 25.019 C 233.105 25.640, 233.738 27.156, 234.895 28.388 C 237.842 31.526, 237.534 32.281, 233.500 31.810 C 230.645 31.477, 230 31.733, 230 33.201 C 230 34.789, 230.976 35, 238.309 35 C 243.942 35, 247.243 35.460, 248.559 36.430 C 250.437 37.814, 250.388 37.976, 247.054 41.430 C 243.880 44.717, 243.148 45, 237.804 45 C 233.312 45, 232 45.339, 232 46.500 C 232 47.679, 233.389 48, 238.500 48 C 243.549 48, 245 47.672, 245 46.531 C 245 45.610, 245.583 45.286, 246.564 45.663 C 247.518 46.029, 248.710 45.432, 249.620 44.131 C 250.927 42.266, 252.087 42, 258.902 42 C 265.420 42, 266.985 42.326, 268.500 44 C 269.495 45.100, 270.889 46, 271.596 46 C 274.189 46, 274.149 43.765, 271.508 41.008 L 268.797 38.179 271.459 36.435 C 273.854 34.865, 273.966 34.538, 272.581 33.152 C 271.195 31.766, 270.803 31.837, 268.648 33.861 C 266.435 35.940, 266.204 35.975, 265.573 34.331 C 264.906 32.591, 265.446 31.937, 269.656 29.395 C 271.244 28.437, 271.302 28.069, 270.093 26.612 C 268.797 25.051, 268.548 25.076, 266.535 26.967 C 263.960 29.386, 263 29.531, 263 27.500 C 263 26.675, 262.325 26, 261.500 26 C 259.437 26, 259.631 29.589, 261.973 34.750 L 263.902 39 258.951 39 C 256.228 39, 254 38.824, 254 38.609 C 254 38.394, 254.890 36.257, 255.978 33.859 C 257.066 31.462, 257.966 29.012, 257.978 28.417 C 257.991 27.758, 255.668 27.333, 252.048 27.333 C 246.778 27.333, 246.061 27.572, 245.798 29.417 C 245.561 31.073, 244.681 31.557, 241.500 31.778 C 238.577 31.982, 237.904 31.789, 239 31.063 C 240.323 30.187, 240.301 29.741, 238.818 27.285 C 236.987 24.252, 234.592 23.234, 233.488 25.019 M 248.250 30.706 C 247.012 30.944, 246 31.769, 246 32.538 C 246 33.376, 246.607 33.704, 247.513 33.357 C 248.345 33.037, 249.663 33.306, 250.443 33.953 C 251.567 34.885, 252.075 34.729, 252.895 33.196 C 253.464 32.133, 253.645 30.979, 253.298 30.631 C 252.641 29.974, 251.999 29.984, 248.250 30.706 M 205.787 37 C 206.334 40.730, 207.560 40.722, 211.962 36.959 L 215.424 34 210.385 34 C 205.355 34, 205.347 34.005, 205.787 37 M 136 39.500 C 136 40.708, 137.556 41, 144 41 C 150.444 41, 152 40.708, 152 39.500 C 152 38.292, 150.444 38, 144 38 C 137.556 38, 136 38.292, 136 39.500 M 232 39.500 C 232 40.679, 233.389 41, 238.500 41 C 243.611 41, 245 40.679, 245 39.500 C 245 38.321, 243.611 38, 238.500 38 C 233.389 38, 232 38.321, 232 39.500 M 136 45.750 C 135.999 47.279, 136.976 47.481, 143.750 47.346 C 149.962 47.222, 151.564 46.875, 151.823 45.596 C 152.098 44.240, 150.933 44, 144.073 44 C 137.051 44, 136 44.228, 136 45.750 M 250 51.500 C 250 55.225, 250.403 57.005, 251.250 57.015 C 252.170 57.027, 252.142 57.258, 251.143 57.890 C 250.203 58.486, 250.124 58.959, 250.888 59.431 C 251.494 59.805, 252.471 61.012, 253.061 62.113 C 254.064 63.987, 253.904 64.073, 250.566 63.446 C 247.393 62.851, 247 63.010, 247 64.889 C 247 66.929, 247.438 67, 260 67 C 272.516 67, 273 66.922, 273 64.912 C 273 63.030, 272.605 62.891, 269 63.500 C 264.618 64.240, 264.113 63.638, 266.710 60.768 C 268.186 59.137, 268.220 58.751, 266.960 57.954 C 265.743 57.184, 265.791 57.028, 267.250 57.015 C 268.703 57.003, 269 56.066, 269 51.500 L 269 46 259.500 46 L 250 46 250 51.500 M 253.500 51.250 C 253.652 53.311, 254.162 53.500, 259.583 53.500 C 264.958 53.500, 265.529 53.294, 265.820 51.250 C 266.122 49.118, 265.804 49, 259.737 49 C 253.715 49, 253.344 49.134, 253.500 51.250 M 136 59 C 136 67.333, 136.148 68, 138 68 C 139.467 68, 140 67.333, 140 65.500 C 140 63.250, 140.400 63, 144 63 C 146.889 63, 148 63.417, 148 64.500 C 148 65.325, 148.675 66, 149.500 66 C 150.708 66, 151 64.444, 151 58 L 151 50 143.500 50 L 136 50 136 59 M 198 53.039 C 198 54.957, 198.517 55.061, 206.739 54.789 C 214.130 54.545, 215.529 54.230, 215.812 52.750 C 216.111 51.187, 215.175 51, 207.073 51 C 198.609 51, 198 51.137, 198 53.039 M 231 59.500 C 231 67.333, 231.157 68, 233 68 C 234.333 68, 235 67.333, 235 66 C 235 64.381, 235.667 64, 238.500 64 C 240.944 64, 242 64.452, 242 65.500 C 242 66.325, 242.675 67, 243.500 67 C 244.708 67, 245 65.444, 245 59 L 245 51 238 51 L 231 51 231 59.500 M 140 56.440 C 140 59.936, 140.073 60, 144.063 60 C 148.045 60, 148.120 59.935, 147.813 56.750 C 147.527 53.783, 147.174 53.473, 143.750 53.190 C 140.061 52.884, 140 52.937, 140 56.440 M 235 57.500 C 235 60.833, 235.167 61, 238.500 61 C 241.833 61, 242 60.833, 242 57.500 C 242 54.167, 241.833 54, 238.500 54 C 235.167 54, 235 54.167, 235 57.500 M 255.855 60.250 C 256.983 62.038, 258.497 63.625, 259.220 63.779 C 260.354 64.019, 264 59.303, 264 57.596 C 264 57.268, 261.706 57, 258.902 57 L 253.804 57 255.855 60.250 M 198 60.539 L 198 63.078 206.750 62.789 C 214.961 62.518, 215.520 62.361, 215.820 60.250 C 216.131 58.059, 215.903 58, 207.070 58 C 198.025 58, 198 58.007, 198 60.539" stroke="none" fill="black" fill-rule="evenodd"/>
</svg>